/* XPM */
static char *f379d77e949d4ac4af0052816ca3f408[] = {
/* columns rows colors chars-per-pixel */
"64 64 207 2 ",
"   c #51158C",
".  c #50148D",
"X  c #551A8F",
"o  c #551A90",
"O  c #551B90",
"+  c #561B90",
"@  c #561C90",
"#  c #561C91",
"$  c #571C91",
"%  c #571D91",
"&  c #571E91",
"*  c #571D92",
"=  c #571E92",
"-  c #581E91",
";  c #581E92",
":  c #581F92",
">  c #591F92",
",  c #592092",
"<  c #592093",
"1  c #5A2093",
"2  c #5A2193",
"3  c #5A2293",
"4  c #5B2293",
"5  c #5B2294",
"6  c #5B2394",
"7  c #5C2394",
"8  c #5C2494",
"9  c #5D2494",
"0  c #5C2594",
"q  c #5D2594",
"w  c #5C2495",
"e  c #5D2495",
"r  c #5C2595",
"t  c #5D2595",
"y  c #5E2494",
"u  c #5E2595",
"i  c #5D2496",
"p  c #5D2596",
"a  c #5E2596",
"s  c #5F2596",
"d  c #5E2597",
"f  c #5F2597",
"g  c #5D2696",
"h  c #5E2696",
"j  c #5F2696",
"k  c #5E2697",
"l  c #5F2697",
"z  c #5F2896",
"x  c #5F2897",
"c  c #5F2598",
"v  c #5F2698",
"b  c #5F2699",
"n  c #602997",
"m  c #602699",
"M  c #60269A",
"N  c #61279A",
"B  c #61269B",
"V  c #61279B",
"C  c #61279C",
"Z  c #62279C",
"A  c #612A98",
"S  c #612B98",
"D  c #622C98",
"F  c #632D99",
"G  c #642E99",
"H  c #642E9A",
"J  c #65309A",
"K  c #68349C",
"L  c #68359C",
"P  c #69359D",
"I  c #6A369D",
"U  c #6A379E",
"Y  c #6B399E",
"T  c #6D3A9F",
"R  c #6E3CA0",
"E  c #703FA2",
"W  c #7342A3",
"Q  c #7344A4",
"!  c #7444A4",
"~  c #7445A4",
"^  c #7647A5",
"/  c #7748A6",
"(  c #7849A7",
")  c #784AA7",
"_  c #7B4DA8",
"`  c #7C4EA9",
"'  c #7E51AB",
"]  c #7E52AB",
"[  c #7F52AB",
"{  c #855AAF",
"}  c #855CAF",
"|  c #865CB0",
" . c #865DB0",
".. c #875EB0",
"X. c #885FB1",
"o. c #8A62B2",
"O. c #8A62B3",
"+. c #8B63B3",
"@. c #8C64B4",
"#. c #8D65B4",
"$. c #8D66B5",
"%. c #8F68B6",
"&. c #8F69B6",
"*. c #9069B6",
"=. c #916BB7",
"-. c #946EB9",
";. c #946FB9",
":. c #9773BB",
">. c #9774BB",
",. c #9874BB",
"<. c #9874BC",
"1. c #9A76BD",
"2. c #9A77BD",
"3. c #9A78BD",
"4. c #9C7ABE",
"5. c #9F7EC0",
"6. c #A07FC1",
"7. c #A180C1",
"8. c #A180C2",
"9. c #A181C2",
"0. c #A281C2",
"q. c #A382C2",
"w. c #A383C2",
"e. c #A383C3",
"r. c #A484C3",
"t. c #A485C4",
"y. c #A585C4",
"u. c #A586C4",
"i. c #A88AC6",
"p. c #AA8CC7",
"a. c #AA8DC8",
"s. c #AC8FC9",
"d. c #AC90C9",
"f. c #AF93CA",
"g. c #AF93CB",
"h. c #B095CB",
"j. c #B197CC",
"k. c #B297CC",
"l. c #B297CD",
"z. c #B59BCE",
"x. c #B69DCF",
"c. c #B69ECF",
"v. c #B69DD0",
"b. c #B9A0D1",
"n. c #BBA4D3",
"m. c #BCA4D3",
"M. c #BCA5D3",
"N. c #BDA6D4",
"B. c #BDA7D4",
"V. c #C0ABD6",
"C. c #C1ACD6",
"Z. c #C3AED8",
"A. c #C4B0D8",
"S. c #C4B0D9",
"D. c #C5B0D9",
"F. c #C5B1DA",
"G. c #C7B3DA",
"H. c #C8B5DB",
"J. c #C9B6DB",
"K. c #C9B7DC",
"L. c #CAB7DC",
"P. c #CAB8DC",
"I. c #CBB8DD",
"U. c #CCBBDE",
"Y. c #CDBBDE",
"T. c #CDBCDE",
"R. c #CEBDDF",
"E. c #CFBFE0",
"W. c #D1C1E1",
"Q. c #D2C3E1",
"!. c #D3C3E2",
"~. c #D4C5E3",
"^. c #DACDE7",
"/. c #DCCFE8",
"(. c #E0D5EB",
"). c #E1D6EB",
"_. c #E1D7EB",
"`. c #E1D7EC",
"'. c #E3DAED",
"]. c #E5DCEE",
"[. c #E5DDEE",
"{. c #E7DEEF",
"}. c #EEE8F4",
"|. c #EEE9F4",
" X c #F0EAF5",
".X c #F2EEF7",
"XX c #F3EEF7",
"oX c #F3EFF7",
"OX c #F4F0F8",
"+X c #F5F1F8",
"@X c #F5F1F9",
"#X c #F6F3F9",
"$X c #F7F5FA",
"%X c #F9F7FB",
"&X c #FAF8FC",
"*X c #FAF9FC",
"=X c #FBFAFC",
"-X c #FBFAFD",
";X c #FCFAFD",
":X c #FCFBFD",
">X c #FCFCFD",
",X c #FDFCFE",
"<X c #FEFDFE",
"1X c #FEFEFE",
"2X c #FEFEFF",
"3X c gray100",
"4X c None",
/* pixels */
"4X4X4X4X4X4X4X4X4Xr r r y r r y r y z r s y r r y r r y r r y r r y r r s r s y r r s r s y r r y r r y r r r s 4X4X4X4X4X4X4X4X",
"4X4X4X4X4X4Xr c c N s s s s r s s s r r s r s s s s r n s r s s r n s s s r s r r z s r s r s s s s r n s s s N s r 4X4X4X4X4X4X",
"4X4X4X4Xr N N s r r r r r r r s r r r r r r r r r s r r r r y s r r r r r s r r s y y s r r r r r s r r r r r y r N N r 4X4X4X4X",
"4X4X4Xr V r y s r r s r s s r r y s r r r s s r r r r s r y z r r s s r r r r s r r r r r s s r r r r s r r r z r s r N N 4X4X4X",
"4X4Xr Z s r r r r r z y r r r s s y z r r r s r s r y r r r r r y s r y s r r s y r r r z y r r s y r s y z s y s r r r N r 4X4X",
"4X4Xr s s r r y r r y s r s r y r r y r s r y r s r s r y s y s z r r s y r r y z y r r y s r y r r r r r y r r y r s s 5 Z r 4X",
"4Xr N s r y r s r r r r r r r r y r r y y r r r y r s r z r r r y r r r r y r r r s s r r r r s r r r y r r r r r r r r r s s 4X",
"4Xr r r r s r r y s r y s r y s s r r s r r r y r r y r y r r r r r r r r z y s r r y r r r r r s y r s r r s y s r s r r r N 4X",
"4XN r r r y r r r r y r r y z y s y r s y r r 7 > > , > > & 5 r r s y r s y r s y r r r y z y r z y r r y s r y y r s y r s r r ",
"y V s r r s r r s r s r r s r r r r r r r r r ^ [ [ [ ` ` { U 5 r r r r r r r r z y r r s r r r y s r y z r r s r r r r r r r s ",
"y r r r r s r r y r r r r y r r y r r y s r , T.3X3X;X3X3X3X7.& r r s y y r r y s r r s r r r r r r r s y r r r s r r r y s s y ",
"y V r y z y y z z y r r r s r r s r r s y r > b.3X3X3X3X3X3Xh.O r r y z s r r s y r r y y s r r r r r r r r r r y r s y z r r r ",
"y V r r y r r y s r r r r z y r r s y r r r O 6.3X3X3X3X3X3Xn.& r r r r s y r r z y y r r r r r r y r r s y z r r r s r y r r r ",
"y r r r s r r s y r r r s y r r r s r r r r > @.3X3X3X3X3X3XG.> y s r r r r r r r r z y r r y z r s s r r r y r s r y r r r s r ",
"7 N r r r r y z r r z y r r r r r r r 7 > > O Q =X3X3X3X3X3XW., , , > & > > 7 y r r s s r r r y r r y z y r r r y z r r z y y r ",
"y n y s r r r y s r y s r y s r r r > o.I.I.H.E.=X3X3X3X3X3X/.P A.H.Z.z.4.' F $ , r r r s y r s r r r y s r r r r y r r y s r r ",
"y r s r r r r r r r r z y r z y r r O 7.3X3X3X3X3X3X3X3X3X3X(. .3X3X3X3X3X3X{.h.W > r r r s s r r r r r r r r r r r r r r z y r ",
"y N r r s y y s y s s y r r y s r r & 7.3X3X3X3X3X3X3X3X3X3X{.y.3X3X3X3X3X3X3X3XXXp.n , r r r r s y y s r r s y y s y s s y r r ",
"y N r r r r r r r r r y r s y r r y & 7.3X3X3X3X3X3X3X3X3X3X}.H.3X3X3X3X3X3X3X3X3X3XT.J 7 5 r s r r z y y r r r z r r r r r r r ",
"8 r r r r y s r r r r z r r r r r s & 7.3X3X3X3X3X3X3X3X3X3X$X}.3X3X3X3X3X3X3X3X3X3X3XW.H 5 r r r r r r z y s r y r r r r y s r ",
"r c z y s r r s y r r y s r r r s r $ r.3X3X3X3X3X3X3X3X3X3X3X3X3X3X3X3X3X3X3X3X3X3X3X3Xz.& r r s y r s y r s y y s r r s y r r ",
"r z y s y r z y s r r s y r r r r r > ` y.y.y.7.j.=X3X3X3X3X3XN.6.s.C.'.3X3X3X3X3X3X3X3X=X' > r r r r r r r r r r r r r y z r r ",
"y r r r r r y r r r y z r r z y r s r 5 O & & O H  X3X3X3X3X3X$.. & O V *.].3X3X3X3X3X3X3XG.> r r z y r s y r r r r y r r r r r ",
"r N r y s r r r r r r y s r y s r r r r r r r w z (.3X3X3X3X3X4.& r y y & P /.3X3X3X3X3X3XXXT 5 s y r r y z r r y s z y s r y s ",
"7 N r r r r r s y r s y r s y r s s y r s y z r , U.3X3X3X3X3Xp.X r s y r > / +X3X3X3X3X3X3X&.& y z r r z y r r z y y z y r r r ",
"y s r r r y r r r r y z r r r r r r r r r r y r > x.3X3X3X3X3Xx.> r r r r r $ M.3X3X3X3X3X3Xf.O r y s r y s r y r r s r r r s r ",
"y N r s y z r y s r r r r r y s y s s y y r r r & 7.3X3X3X3X3XC.& r r s r r > o.3X3X3X3X3X3XZ.> r r s y r r r s r r s r z y y r ",
"y s r y s r r s y r r r r y z r r r r r s r r r & o.3X3X3X3X3XW.> r r r s r , W =X3X3X3X3X3XY., r r r r r r r r r r y r y s r r ",
"y r s r r s r r r r y r r r r r r r z y r r y r , P ,.,.,.:.,.X.7 r y s r y 7 T @X3X3X3X3X3XY.> r r r r y z y r s r y s r r r r ",
"r N r r r y r y s r s r y s y s y s y s r r z y r 5 $ > > @ > > s r r r r s , ) ;X3X3X3X3X3XH.> s y y s s r r r y r r r r r y s ",
"y N r r r y r s y r r r z r r r r s y r r y r s r r r r y r r r y r s r r r > -.3X3X3X3X3X3XM.> r r z y r r r r z y r r y z r r ",
"y r r r r s r r z y r r y r r r r r r r r s r r r s s r r r r r r r r r r r > Y.3X3X3X3X3X3X7.> r r r r y s r r r r r r r y s r ",
"y V y s r y s r y s r y s r y s s r r r r r 8 y y s r r r r r r s y r r r X *.3X3X3X3X3X3X3X{ @ 7 r r r r r r z y r z y r r r r ",
"y r z r r z y r z r r s y r r r r r r r y w w y r r r y 5 r r 5 r y , > > $.XX3X3X3X3X3X3X(.n 5 r r y s y s s y r r y s r r y s ",
"y r r r r r y r y r r r z y r r r s w r z z z n n n n n V n z n z n T } G.;X3X3X3X3X3X3X3X7.& r r r r r r r r y r s y r y z r r ",
"y V y s r r s r r r r r r r r r r y & -.'.'.'.(.(.'._._._._.'.(.(.{.XX3X3X3X3X3X3X3X3X3X'.F 7 r r y s r r r r z r r r r r y s r ",
"y V y r y r r r r s y r r s y r r y & r.3X3X3X3X3X3X3X3X3X3X3X3X3X3X3X3X3X3X3X3X3X3X3X%X{ , r r s y r s y z s y y s r y r r r s ",
"8 r r r z y r r r r r r r r z y r s X 7.3X3X3X3X3X3X3X3X3X3X3X3X3X3X3X3X3X3X3X3X3X3X=X,.> r r r r r r r r y r r z r r s r r r y ",
"r s r r r s s r r r s y s y r r r r & 6.3X3X3X3X3X3X3X3X3X3X3X3X3X3X3X3X3X3X3X3X3X|.$.> r r y r r r r y r r r r y r r r r y r r ",
"s n r r r r y r r r y z r r r r r r & 7.3X3X3X3X3X3X3X3X3X3X3X3X3X3X3X3X3X3X3X@XM.E > y s r z y s y r s r r s y r r r r r z y s ",
"7 s r r s r r s r r r z y r z y r s X 6.3X3X3X3X3X3X3X3X3X3X3X3X3X3X3X=X|.~.i.~ > , r r s y r s r r r y r r y z r r r r r y r r ",
"y N s r y r r y y s s y r r y s r r > 7.3X3X3X3X3X3XG.{ O.o.O.O.o.o. .) L 7 & , r r s r r r r r r r r z r r r y s r r r r s s r ",
"y N r r r r r r r r r y r s y r s r $ 7.3X3X3X3X3X3Xd.  & > & ; > > > , y r r r y s r r r r z y s y s y r s r s y r s y r r y z ",
"y r r r s r y s r r r z r r r r y r $ 6.3X3X3X3X3X3Xf.X r r r r r r r r r y s r r r r s r r y s r r r r r y r r r r y z r r r y ",
"y V y z y r s y y r r y s r y s r r & 7.3X3X3X3X3X3Xf.& r r s r r r r s y r s y r r r r r s r r r z y r r r r y r r y s r r r r ",
"y r r y r r y z s r r s y r r r r r O 7.3X3X3X3X3X3Xf.O s r y r s r r s r r r r y s y s z y r y s y r r r r r s r y z r s y y s ",
"y r r s s r r r r r r r r r s r s r O 6.3X3X3X3X3X3Xh.@ y z r r r r r r s r r r r s y r y r r s r r r r z y r r r r r r r r z y ",
"y V r r y r r r y s r y s r r r s r & 7.3X3X3X3X3X3Xh.@ r y r r r s s r y r s y r r r r r r r r r y s r y s r y s r y s r r r r ",
"y V r r r s y r r r r r r r s y r r > 7.3X3X3X3X3X3Xf.& r r s y z y r r y s r y r r r r r y r r s y r r r r s y r r y r r r r s ",
"8 r r r r r z y r r y z r r r r s r X 6.3X3X3X3X3X3Xf.X r y y z y s r y z r r s r y s r r s r r y z r r r y y z r r z y r r r y ",
"r s r r s y y s r r r y r r r s s r X 7.3X3X3X3X3X3Xf.& r s s r r r r s y r r r s y r r r s r r r r r r r s r r r y r s r y r r ",
"r n y s r r r r s y r s r y z y r r O 7.3X3X3X3X3X3Xf.O r r y r r r r r r r r r y z r y z y y z s r y s r r r y r s r r r z y s ",
"y s s r r s r r y z r r r s y r r r > r.3X3X3X3X3X3Xk.$ 5 r y r r y r r s y z r r r r r y r r y y z s y z y y z z y r r r r s y ",
"y N r r r r y s r y s r r r r r y s 7 ~ 2.2.2.,.2.2.` 7 r s s r r s s r r r y r r r y s s r r s r y r r r r s r y s r y r r r r ",
"8 c r r s s y r r r s y r r s y r r r 7 & & > $ & > > r r r s r r r y z y r r r y z r r r r y z r r r r r r s r r r r s r r r s ",
"4XN r r r r r r r r r r r r y z s r r r r 5 r r r r r r s r y r r r r y s r r r r y s r r r r y r r s y r r y r r r r r r y z y ",
"4Xy r r y s s r r s r r s r r s r s y r r r r r s r r r r r r r r s r r s r r s r s y r s y r s r r y s r r s r r r r r r y V y ",
"4Xr V r r r r r r y r r y r z y r r z y r r y z y r r r s r r y r y r r y r z y r r r r y z r r r y z r s r y r y s r r s s r 4X",
"4X4Xc r r r r s r y z r r r y r s y r r r r r y r r z y y r y z r y z r r r y r r r y s r r r y r r r r y r r s r s y r r V r 4X",
"4X4Xy V y s r r r s y r s r r r r r r r s y r s s r y s r r s r r s y r s r r r r y z r r r r s s r y s r r r s r r z y N r 4X4X",
"4X4X4Xz Z r r r r r y z y r s y r r s y r y r r y r r r r r s r r r y z y r s y r r s r r r y z y r s y s r r r s r r N s 4X4X4X",
"4X4X4X4Xs N N r r r r y r r y z r y y z r s r r z y r r r r y r r r r y r r y z r r y r r r r y r r y z r r s r r r Z r 4X4X4X4X",
"4X4X4X4X4X4Xs N s r r s s r r r r s r r r s r r s r r s r r s r r s r s s r r r r r s r r s r s s r r r r s r s N s s 4X4X4X4X4X",
"4X4X4X4X4X4X4X4Xr n r r y r r r r r r y z y y z y r r y y z y r r y r r y r r r y z y r r y r r y r r r r r s r 4X4X4X4X4X4X4X4X"
};
