/* XPM */
static char *_b2212a14b7d46f899331d24111ef884[] = {
/* columns rows colors chars-per-pixel */
"128 128 63 1 ",
"  c #54198F",
". c #571C91",
"X c #581E92",
"o c #5D2595",
"O c #5F2896",
"+ c #5F2698",
"@ c #602997",
"# c #60269A",
"$ c #632D99",
"% c #66319B",
"& c #69359D",
"* c #6C399F",
"= c #6F3DA1",
"- c #703EA1",
"; c #7343A4",
": c #7748A6",
"> c #794AA7",
", c #7B4DA9",
"< c #7E51AA",
"1 c #8156AD",
"2 c #8459AF",
"3 c #875EB0",
"4 c #8C65B4",
"5 c #8F68B5",
"6 c #906AB7",
"7 c #936DB8",
"8 c #9672BA",
"9 c #9975BC",
"0 c #9C7ABE",
"q c #9E7DC0",
"w c #A07FC1",
"e c #A384C3",
"r c #A788C5",
"t c #AA8CC7",
"y c #AC8FC9",
"u c #AE92CA",
"i c #B196CC",
"p c #B49BCE",
"a c #B79ED0",
"s c #BBA3D2",
"d c #BFA9D5",
"f c #C1ADD6",
"g c #C4AFD8",
"h c #C6B3DA",
"j c #C9B6DB",
"k c #CDBCDE",
"l c #CFBEE0",
"z c #D3C4E2",
"x c #D9CDE6",
"c c #DCCFE8",
"v c #DED3EA",
"b c #E0D6EB",
"n c #E4DBED",
"m c #E8DFEF",
"M c #E7DFF0",
"N c #E8DFF0",
"B c #EAE2F1",
"V c #EFE9F5",
"C c #F2EDF6",
"Z c #F5F1F8",
"A c #F8F6FB",
"S c #FFFFFF",
"D c None",
/* pixels */
"DDDDDDDDDDDDDDDDDooooooooooooooooooooooooooooooooooooooooooooooooooooooooooooooooooooooooooooooooooooooooooooooDDDDDDDDDDDDDDDDD",
"DDDDDDDDDDDDDDoo##ooo+oooo+ooo+oOoooooooooooo#oo+ooo+o+oooooo++ooo+ooOooooo+oooooooooooooooo+oooo++oooooooo+Oo++oooDDDDDDDDDDDDD",
"DDDDDDDDDDDoo##ooooooooooooooooooooooooooooooooooooooooooooooooooooooooooooooooooooooooooooooooooooooooooooooooo++@+oDDDDDDDDDDD",
"DDDDDDDDDDo##oooooooooooooooooooooOooooooooooooooooooooooooooooooooooooooooooooooooooooooooooooooooooooooooooooooooo+++DDDDDDDDD",
"DDDDDDDDoo+oooooooooooooooooooooooooooooooooooooooooooooooooooooooooooooooooooooOooooooooOoooooooooooooooooooooooooooo#oDDDDDDDD",
"DDDDDDDo#+ooooooooooooooooooooooooooooooooooooooooooooooooooooooooooooooooooooooooooooooooooooooooooooooooooooooooooooo++oDDDDDD",
"DDDDDDo#oooooooooooooooooooooooooooooooooooooooooooooooooooooooOoooooooooooOooooooooooooooooooooooo+ooooooooooooooooooooo#oDDDDD",
"DDDDDo#ooooooooooooooooooooooooooooooooooooooooooooooooooooooooooooooooooooooooooooooooooooooooooooooooooooooooooooooooooo+DDDDD",
"DDDDo#ooooooooooooooooooooooooooooOoooooooooooooooooooooooooooooooooooooooooooooooooooooooooooooooooooooooooooOoooooooooooo+DDDD",
"DDDD+ooooooooooooooooooooooooooooooooooooooooooooooooooooooooooooooooooooooooooooooooooooooooooooooooooooooooooooooooooOooo#oDDD",
"DDDo#ooooooooooOoooooooOoooooooooooooooooooooooooooooooooooooooooooooooooooooooooooooooooOooooooooooooooOooooooooooooooooooo#oDD",
"DDD#oooooooooooooooooooooooooOoooooooooooooooooooooooooooOoooooooooOoooooooooooooOooooooooooooooooooooooooooooooooooooooooooo+DD",
"DDo+oooooooooooooooooooooooooooooooooooooooOooooooooooooooooooooooooooooooooooooooooooooooooooooooooOoooooooooooooooooooooooo#oD",
"DD#oooooooooooooooooooooooooooooooooooooooooooooooooooooooooooooooooooooooooooooooooooooooooooooooooooooooooooooooooooooooooo+oD",
"Do#ooooooooooooooooooooooooooooooooooooooooooooooooooooooooooooooooooooooooooooOoooooooooooooooooooooooooooooooooooooooooooooo+D",
"Do#oooooooooooooooooooooooooooooooooooooooooooooOooooooooooooooooooooooooooooooooooooooooooooooooooooooooooooooooooooooooooooooo",
"DOOoooooooooooooooooooooOooooooooooooooooooooooooooooooooooooooooooooooooooooooooooooooooooooooooooooooooooooooooooooooooOoooooo",
"D+ooooooooooOoooooooooooooooooooooooooooooooooooooooooooooooooooooooooOooooooooooooooooooooooooooooooooooooooooooooooooooooooooo",
"D#oooooooooooooooooooooooooooooooooooooooooooooooXoXXoXoXooooooooooooooooooooooooooooooooooooooooooooooooooooooOoooooooooooooooo",
"oooooooooooooooooooOooooooooooooooooooooooooooekkkkkkjkkkkkkuooooooooooooOooooooooooooOooooooOooooooooooooooooooooOooooooooooooo",
"oooooooooooooooooooooooooooooooooooooooooooooXaSSSSSSSSSSSSSb@oooooooooooooooooooooooooooooooooooooooooooooooooooooooooooooooooo",
"ooooooOoooooooooooooooooooOooooooooooooooooooXwSSSSSSSSSSSSSM$oooooooooooooooooooooooooooooooooooooOOoooooooooooooooooooooooooOo",
"oooooooooooooooooooooooooooooooooooooooooooooX5SSSSSSSSSSSSSZ%oooooooooooooooooooooooooooooooooooooooooooooooooooooooooooooooooo",
"o+oooooooooooooooooooooooooooooooooooooooooooX<ASSSSSSSSSSSSA*Xooooooooooooooooooooooooooooooooooooooooooooooooooooooooooooooooo",
"oooooooooooooooooooOoooooooooooooooooooooooooo&CSSSSSSSSSSSSA,oooooooooooooooooooooooooooooooooOoooooooooooooooooooOoooooooooooo",
"oOoooooooooooooooooooooooooooooooooooooooooooo@bSSSSSSSSSSSSS3Xooooooooooooooooooooooooooooooooooooooooooooooooooooooooooooooooo",
"oooooooooooooooooooooooooooooooooooooooooooooookSSSSSSSSSSSSS4XoOooooooooooooooooooooooooooOoooooooooooooooooooooooooo+oooooOooo",
"oooooooOoooooooooooooooooooooooooooooooooooooooaSSSSSSSSSSSSSqXoooooooooooooooOooooooooooooooooooooooooooooooooooooooooooooooooo",
"o+ooooooo@oooooooooooooooooooooooooooooooooooo 0SSSSSSSSSSSSSrXoooooooooooooooooooooooooooooooooooooooOoooOooooooooooooooooooooo",
"oOoooooooooooooooooooooooooooooooooooooooXXoXo 4SSSSSSSSSSSSSp ooXXXXXXXXooooooooOoooooooooooooooooooooooooooooooooooooooooooooo",
"ooooooooooooooooooooooooooooOooooooooo&addddddskSSSSSSSSSSSSSs %sdddsyq4,%oXXooooooooooooooooooooooooooooooooooooooooooooooooooo",
"oooooooooooooooooooooooooooooooooooooo*ZSSSSSSSSSSSSSSSSSSSSShX<SSSSSSSSAVzu3%XXoooooooooooooooooooooooooooooooooooooooooooooooo",
"oOoooooooooooooooooooooooooooooooooooX=CSSSSSSSSSSSSSSSSSSSSSzX8SSSSSSSSSSSSSnp<oXoooooooooooooooooooooooooooooooooooooooooooooo",
"ooooooooooooooooOooooooooooooooooooooo=CSSSSSSSSSSSSSSSSSSSSSxXuSSSSSSSSSSSSSSSAj1XooooooooooooooooooOoooooooooooooooooooooooooo",
"oooooooooooooooooooooooooooooooooooooX=CSSSSSSSSSSSSSSSSSSSSSn$kSSSSSSSSSSSSSSSSSAs*.ooooooooooooooooooooooooooooooooooooooooooo",
"oOooooOooooooooooooooooooooooooooooooo=CSSSSSSSSSSSSSSSSSSSSSB*nSSSSSSSSSSSSSSSSSSSm4Xooooooooooooooooooooooooooooo@oooooooooooo",
"ooooooooooooooooooooooooooooOooooooooo=CSSSSSSSSSSSSSSSSSSSSSZ<ASSSSSSSSSSSSSSSSSSSSArXooooooooooooooooooooooooooooooooooooooooo",
"oOooooooooooooooooooooooooooooooooooOX=CSSSSSSSSSSSSSSSSSSSSSZeSSSSSSSSSSSSSSSSSSSSSSSuooooooooooooooooooooooooooooooooooooooooo",
"ooooooooOooooooooooooooooooooooooooooX=CSSSSSSSSSSSSSSSSSSSSSZhSSSSSSSSSSSSSSSSSSSSSSSSyXooooooooooooooooooooooooooooooooooooooo",
"oooooooooooooooooooooooooooooooooooooo=CSSSSSSSSSSSSSSSSSSSSSACSSSSSSSSSSSSSSSSSSSSSSSSS9Xoooooooooooooooooooooooooooooooooooooo",
"oOooooooooooooooooooooooooooooooooooOX=CSSSSSSSSSSSSSSSSSSSSSSSSSSSSSSSSSSSSSSSSSSSSSSSSC,XoooooOooooooooooooooooooooooooooooooo",
"oOoooooooooooooooooooooooooooooooooooo=ASSSSSSSSSSSSSSSSSSSSSSSSSSSSSSSSSSSSSSSSSSSSSSSSSz@ooooooooooooooooooooooooooooooooooooo",
"oOoooooooooooooooooooooOoooooooooooooo&gklllklkkkvSSSSSSSSSSSSMkkkzvVSSSSSSSSSSSSSSSSSSSSS9Xooooooooooooooooooooooooooooooo@oooo",
"oooooooooooooooooooooooooooOoooooooooooXXoXoXooX 4SSSSSSSSSSSSp ooo$&>ezASSSSSSSSSSSSSSSSSn%oooooooooooooOoooooooooooooooooooooo",
"ooooooooooooooooooooooooooooooooooooooooooooooooo:ASSSSSSSSSSSfXoooooX o1hSSSSSSSSSSSSSSSSS9Xoooooooooooooooooooooooooo@oooooooo",
"oOooooooooooooooooooooooooooooooooooooooooooooooo%VSSSSSSSSSSSkoooooooooXX5BSSSSSSSSSSSSSSSzOooooooooooooooooooooooooooooooooooo",
"oooooooooooooooooooooOoooooooooooooooooooooooooooobSSSSSSSSSSSz#ooooooooooX:bSSSSSSSSSSSSSSA,Xoooooooooooooooooooooooooooooooooo",
"oOoooooooooooooooooooooooooooooooooooooooooooooooojSSSSSSSSSSSb@ooooooooooo.,VSSSSSSSSSSSSSSrXoooooooooooooooooooooooooooooooooo",
"ooooooooooooooooooooooooooooooooooooooooooooooooooiSSSSSSSSSSSm$ooooooooooooX7ASSSSSSSSSSSSSzoooooooooooooooooooooooooooooooo@oo",
"o+oooooooooooooooooooooooooooOooooooooooooooooooo.qSSSSSSSSSSSZ%XoooooooooooookSSSSSSSSSSSSSV&Xooooooooooooooooooooooooooooooooo",
"o+oooooooooooooooooooooooooooooooooooooooooooooooX4SSSSSSSSSSSZ-oooooooooooooX3SSSSSSSSSSSSSA1XooOoooooooooooooooooooooooooooooo",
"o+ooooooooooooooooooooOooooooooooooooooooooooooooX>ASSSSSSSSSSA<XoooooooooooooovSSSSSSSSSSSSS7Xooooooooooooooooooooooooooooooooo",
"o+oooooooooooooooooooooooooooooooooooooooooooooooo&CSSSSSSSSSSS3Xooooooooooooo pSSSSSSSSSSSSSrXooooooooooooooooooooooooooooooooo",
"oooooooooooooooooooooooooooooooOoooooooooooooooooo@vSSSSSSSSSSS5Xoooooooooooooo4SSSSSSSSSSSSSaXooooooooooooOoooo@ooooooooooooooo",
"ooooooooooooooooooooooooooooooooooOoooooooooooooooohSSSSSSSSSSSqXoooooooooooooX;SSSSSSSSSSSSSfXooooooooooooooooooooooooooooooooo",
"ooooooooooooooooooooooooooooooooooooooooooooooooooXpSSSSSSSSSSSt oooooooooooooo*CSSSSSSSSSSSSfXOoooooooooooooooOoooooooooooooooo",
"ooooooooooooooOoooooooooooooooooooooooooooooooooooX3hhhhhhhhhhj8Xoooooooooooooo%mSSSSSSSSSSSSfooooooooooooooooooooooooooooooo@oo",
"oooooooooooOooooooooooooooooooooooooooooooooooooooooXooXXooXoXXoooooooooooooooo&VSSSSSSSSSSSSfXooooooooooooooooooooooooooooooooo",
"OooooooooooooooooooooooooooooooooooooooooooooooooooooooooooooXoooooooOooooooooo=ASSSSSSSSSSSSfXoooooooooooooooooooooooo@oooooooo",
"ooooooooooooooooooooooooooooooooooooooooooooooooooooooooooooooooooooooooooooooX2SSSSSSSSSSSSSpXooooooooooooooooooooooooooooooooo",
"oOoooooooooooooooooooooooooooooooooooooooooooOooooooooooooooooooooooooooooooooXwSSSSSSSSSSSSSrXoooooooOooooooooooooooooooooooooo",
"ooooooooooooooooooooooooooooooooooooooooooooooooooooooooooooooooooooooooooooooXkSSSSSSSSSSSSA7.Ooooooooooooooooooooooooooooooooo",
"ooooooooooooooooooooooOooooooooooooooooooooooooooooooooooooooooooooooooooooooX-ZSSSSSSSSSSSSA2Xooooooooooooooooooooooooooooooooo",
"oOoooooooooooooooooooooooOoooooooooooooooooooooooooooooooooooooooooooooooooooXiSSSSSSSSSSSSSB%ooooooooooOO@ooooooooooooooooooooo",
"oOooooooooooooooooooooooooooOoooooooooooooooooooooooooooooooooooooooooooooooX,ZSSSSSSSSSSSSSkooooooooooooooooooooooooooooooooooO",
"o@oooooooooooooooooooooooooooooooooooooooooooooooooooooooooooooooooooooooooo$xSSSSSSSSSSSSSSe oooooooooooooooooooooooooooooooooo",
"ooooooooooooooooooooooooooooooooooooooooooooooooooooooooooooooooooooooooooX$kSSSSSSSSSSSSSSA:ooooooooooooooooooooooooooooooooooo",
"ooooooooooooooooooooooo@ooooooooooooooooooooooooooooooooooooooooooooooooo ;xSSSSSSSSSSSSSSSzooooooooooooooooooOooooooooooooooooo",
"ooooooooooooooooooooooooooooooooooooooooooooooooooooooooooooooooooooooXX*uVSSSSSSSSSSSSSSSS7Xooooooooooooooooooooooooooooooooooo",
"oooooooooooooooooooooooooooooooooooooooXXoXXXoXooXXXoXXXXoXXXoXoXooO$=6dVSSSSSSSSSSSSSSSSSx@ooooooooooooooooOooooooooooooooooooo",
"ooooooooooo@oooooooooooooooooooooooooo%fhhhhhhhhhhhhhhhhhhhhhhhhhhhzbASSSSSSSSSSSSSSSSSSSS5.oooooooooooooooooooooooooOoooooooooo",
"oOoooooooooooooooooooooooooooooooooooo-ZSSSSSSSSSSSSSSSSSSSSSSSSSSSSSSSSSSSSSSSSSSSSSSSSSjoooooooooooooooooooooooooooooooooooooo",
"oOooooooooooOoooooooOooooooooooooooooo=VSSSSSSSSSSSSSSSSSSSSSSSSSSSSSSSSSSSSSSSSSSSSSSSSV-oooooooooooooooooooooooooooooooooooooo",
"oooooooooooooooooooooooooooooooooooooo-CSSSSSSSSSSSSSSSSSSSSSSSSSSSSSSSSSSSSSSSSSSSSSSSA4XooooooooooooooooooooooooooooooOooooooo",
"oOoooooooooooooooooooooooooooooooooooo=VSSSSSSSSSSSSSSSSSSSSSSSSSSSSSSSSSSSSSSSSSSSSSSSeXooooooooooooooooooooooooooooooooooooooo",
"ooooooooooooooooooooooooooOooooooooooo-CSSSSSSSSSSSSSSSSSSSSSSSSSSSSSSSSSSSSSSSSSSSSSSe.oooooooooooooooooooooooooooooOoooooooooo",
"oooooooooooooooooooooooooooooooooooooo=VSSSSSSSSSSSSSSSSSSSSSSSSSSSSSSSSSSSSSSSSSSSSA0Xooooooooooooooooooooooooooooooooooooooooo",
"oOoooooooooooooooooooooooooooooooooooX-CSSSSSSSSSSSSSSSSSSSSSSSSSSSSSSSSSSSSSSSSSSSb2XooooooooooooooooooooOooooooooooooooooooooo",
"ooooooooooooooOooooooooooooooooooo+ooX-CSSSSSSSSSSSSSSSSSSSSSSSSSSSSSSSSSSSSSSSSSAa&XooooooooooooooooooOoooooooooooooooooooooooo",
"oOoooooooooooooooooooooooooooooooooooo=CSSSSSSSSSSSSSSSSSSSSSSSSSSSSSSSSSSSSSSSAg<XoooooooooOooooooooooooooooooooooooooooooOoooo",
"oooooooooooooooooooooooooooooooooooooX-CSSSSSSSSSSSSSSSSSSSSSSSSSSSSSSSSSSSSSBa,o.oooooooooooooooooooooooooooooooooooooooooooooo",
"oooooooooooooooooooooooooooooooooooooo=CSSSSSSSSSSSSSSSSSSSSSSSSSSSSSSSSACxi4%XXoooooooooooooooooooooooooooooooooooooooooooooooo",
"oooooooooooooooooooooooooooooooooooooX=CSSSSSSSSSSSSAjhghghhhhhhhhhhhpe81*OXXooooooooooooooooooooooooooooooooooooooooooooooooo@o",
"ooooooooooooooooOooooooooooooooooooooo=CSSSSSSSSSSSSB$oooooooXoooooooX.XXooooooooooooooooooooooooooooooooooooooooooooooooooooooo",
"oooooooooooooooooooooooooooooooooooooo=CSSSSSSSSSSSSB%oooooooooooooooooooooooooooooooooooooooooooooooooooooooooooooooooooooooooo",
"oooooooooooooOoooooooooooooooooOo+oooX-CSSSSSSSSSSSSB$Xooooooooooooooooooooooooooooooooooooooooooooooooooooooooooooooooooooooooo",
"oOoooooooooooooooooooooooooooooooooooo*CSSSSSSSSSSSSB$oooooooooooooooooooooooooooooooooooooooooooooooooooooooooooooooooooooooooo",
"ooooooooooooooooooooooooooo+oooooooooo=CSSSSSSSSSSSSB%ooooooooooooooooooooooooooooooooooooooOoooooooo@ooooooooo@oooooooooooooooo",
"ooooooooooooooooooooooo+oooooooooooooo=CSSSSSSSSSSSSB%Xooooooooooooooooooooooooooooooooooooooooooooooooooooooooooooooooooooooooo",
"oOoooooooooooooooooooooooooooooooooooo=CSSSSSSSSSSSSB%oooooooooooooooooooo+ooooooooooooooooooooooooooooooooooooooooooooooooooooo",
"ooooooooooooooOooooooooooooooooooooooX=CSSSSSSSSSSSSB%ooooooooOooooooooooooooooooooooooooooooooooo@ooooooooooooooooooooooooooooo",
"oOoooooooooooooooooooooooooooooooooooo-CSSSSSSSSSSSSm%oooooooooooooooooooooooOoooooooooooooooooooooooooooooooooooooooooooooooooo",
"oOoooooOoooooooooooooooooooooooooooooo=CSSSSSSSSSSSSm$oooooooooooooooooooooooooooooooOoooooooooooooooooooooooooooooooooooooooooo",
"oooooooooooooooooooooooooooooooooooooX=VSSSSSSSSSSSSm$ooooooooooooooooooooooooooooooooooooooooooooooooooooooooooooo@oooooooooooo",
"oOoooooooooooooooooooooooooooooooooooo=CSSSSSSSSSSSSm&ooooooooooooooooooooooooooooooooooooOooooooooooooooooooooooooooooooooooooo",
"oOoooooooooooooooooooooooooooooooooooo=CSSSSSSSSSSSSm%ooOooooooooooooooooooooooooooooooooooooooooooooooooooooooooooooooooooooooo",
"oooooooooooooooooooooooooooooooooooooo-CSSSSSSSSSSSSB%oooooooooooooooooooooooooooooooooooooooooooooooooooooooooooooooooooooooooo",
"o+ooooooooooooooooooooooooooOooooooooo-CSSSSSSSSSSSSB%ooooooooooooooooooooooooooooooooooooooooooooo@oooooooooooOoooooooooooooooo",
"ooooooooooooOooooooooooooooooooooooooo-CSSSSSSSSSSSSB%oooooooooooooooooooooooooooooooooooooooooooooooooooooooooooooooooooooooooo",
"oooooooooooooooooooooooooooooooooooooX*CSSSSSSSSSSSSB$Xooooooooooooooooooooooooooo@oooooooooooooooooooooooooooooooooooOooooooooo",
"o+oooooooooooooooooooooooooooooooooooX-CSSSSSSSSSSSSB%ooooooooooooooooooooo@oooooooooooooooooooooooooooooooooooOoooooooooooooooo",
"o+ooooooooooooOooooooOoooooooooooooooo-CSSSSSSSSSSSSm%oooooooooooooooooooooooooooooooooooooooooooooooooooooooooooooooooooooooooo",
"oooooooooooooooooooooooooooooooooooooo-CSSSSSSSSSSSSB$ooooooooooooo@oooooooooooooooooooooooooooooooooooooooooooooooooooooooooooO",
"oOoooooooooooooooooooooooooooooooooooX-CSSSSSSSSSSSSB$oooooooooooooooooooooooooooooooooooooooooooooooooooooooooooooooooooooooooo",
"oOoooooooooooooooooooooooooooooooooooo-CSSSSSSSSSSSSB%ooooooooooooooooooooooo@oooooooooooooooooooooooooooooooooooooooooooooooooo",
"oooooooooooooooooooooooooooooooooooooX-CSSSSSSSASSSSB%ooooooooooooooooooooooooooooooooooooooooooooooooooooooooooooooooOooooooooo",
"o+ooooooooooooooooooooooooOooooooooooo*mCCCZCCCCZZCZv%ooooooooooooooooooooooooooooooooooooOooooooooooooooooooooooooooooooooooooo",
"oooooooooooooooooooooooooooooooooooooo@;::;>>>>>;:::;ooooooooooooooooooooooooooooooooooooooooooooooooooooooooooooooooooooooooooo",
"ooooooooooooooooooooooooooooooooooooooOXoXoXooXXooXoXooooooooooooooooooooooooooooooooooooooooooo@oooooooooooooooooooooooooooOooo",
"o+oooooooooooooooooOoooooooooooooooooooooooooooooooooooooooooooooooooooooooooooooooooooooooooooooooooooooooooooooooooooooooooooo",
"DOooooooooooooooooooooooooooooooOoooooooooooooooooooooooooooooooo@oooooooooooooooooooooooooooooooooooooooOoooooooooooooooooooooo",
"DO+oooooooOoooooooooooooOooooooooooooooooooooooooooooooooooooooooooooooooooooooooooooooooooooooooooooooo@Ooooooooooooooooooooooo",
"Do#oooooooooooooooooooooooooooooooooooooooooooooOoooooooooooooooooooooooo@oooooooooooooooooooooooooOoooooooooooooooooooooooooooo",
"Do#ooooooooOoooooooooooooooooooooooooooooooooooooooooooooooooooooooooooooooooooooooooooooooooooooooooooooooooooooooooooooooooo@D",
"DD#oooooooooooooooooooooooooooooooooooooooooooooooooooooooooooooooooooooooooooooooooooOoooooooooooooooooooooooooOoooooooOoooooOD",
"DDoooooooooooooooooooooooooooooooOoooooooooooooooooooooooooooooooooooooooooooooooooooooooooooooooooooooooooooooooooooooooooo+#oD",
"DDo#oooooooooooooooooooooooooOooooooooooooooooooooooooooooOoooooooooooooooooooooooooOooooooooooooooooooooooOooooooooooooooooooDD",
"DDDo+ooooooooooooooooooOoooooooooooooooooooooooooooooooooooooooooooooooooooooooooooooooooooooooooooooooooooooooooooooooooooo#oDD",
"DDDD#oooooooooooooooooooooooooooooooooooooooooooooooooooooooooooooooooooooooooooooooooooooooooooooooooooooooooooooooooooooo++DDD",
"DDDD+@ooooooooooooooooooooooooooooooooooooooooooooooooooooooooooooooooooooooooooooooooooooooOooooooooooooooooooooooooooooo+#DDDD",
"DDDDDo#oooooooooooooooooooooooooooooooooooooooooooooooooooooooooooooooooooooooooooooooooooooooooooooooooooooooOooooooooooo#oDDDD",
"DDDDDDo#oooooooooooooooooooooooooooooooooooooOooooooooooooooooOooooooooooooooooooooooooooooooooooooooOooooooooooooooooooo#oDDDDD",
"DDDDDDDo#ooooooooooooooooooooooooooooooooooooooooooooooooooooooooooooooooooooooooooooooooooooooooooooooooooooooooooooooo#+DDDDDD",
"DDDDDDDDo#ooooooooooooOooooooooOoooooooooooooooooooooooooooooooooooooooo@ooooooooooooooooOooooooooooooooooooooooooooooo#oDDDDDDD",
"DDDDDDDDDo+#ooooooooooooooooooooooooooooooooooooooooooooooooooOooooo@OoOooooooooooOooooooooooooooooooooooooooooooo+o+#+DDDDDDDDD",
"DDDDDDDDDDDo+++oooooooooooooooooooooooooooooooooooooOooooooooooooooooooooooooooooooooooooooooooooooooooooooooooooo+#++DDDDDDDDDD",
"DDDDDDDDDDDDDoOooooooooooooooooooooooooooooooooooooooooooooooooooooooooooooooooooooooooooooooooooooooooooooooooo+#o+DDDDDDDDDDDD",
"DDDDDDDDDDDDDDDDooooooooooooooooooooOooooooooooooooooooooooooooooooooooooooooooooooooooooooooooOoooooooooooooooooDDDDDDDDDDDDDDD"
};
