/* XPM */
static char *_d5eefeda07e487adfd2de5bccbc0d2f[] = {
/* columns rows colors chars-per-pixel */
"32 32 136 2 ",
"   c #50158C",
".  c #53188E",
"X  c #53188F",
"o  c #551A90",
"O  c #561B90",
"+  c #561C90",
"@  c #561C91",
"#  c #571D91",
"$  c #571E91",
"%  c #581E92",
"&  c #581F92",
"*  c #591F92",
"=  c #592092",
"-  c #592093",
";  c #5A2093",
":  c #5A2193",
">  c #5B2293",
",  c #5A2294",
"<  c #5B2294",
"1  c #5B2394",
"2  c #5C2394",
"3  c #5C2494",
"4  c #5D2494",
"5  c #5C2495",
"6  c #5D2495",
"7  c #5D2595",
"8  c #5E2594",
"9  c #5D2695",
"0  c #5D2496",
"q  c #5D2596",
"w  c #5D2597",
"e  c #5E2596",
"r  c #5E2597",
"t  c #5E2696",
"y  c #5E2796",
"u  c #5E2697",
"i  c #5F2897",
"p  c #5E2598",
"a  c #5F2698",
"s  c #602997",
"d  c #612A97",
"f  c #602699",
"g  c #60269A",
"h  c #61269B",
"j  c #62279C",
"k  c #62279D",
"l  c #622C98",
"z  c #622C99",
"x  c #632D99",
"c  c #65319B",
"v  c #68349C",
"b  c #6A369D",
"n  c #6B389E",
"m  c #703EA1",
"M  c #703FA1",
"N  c #7241A3",
"B  c #7343A4",
"V  c #7545A5",
"C  c #7646A5",
"Z  c #7647A5",
"A  c #7747A5",
"S  c #7747A6",
"D  c #7748A6",
"F  c #794AA7",
"G  c #794BA8",
"H  c #7A4CA8",
"J  c #7C4FA9",
"K  c #7F53AC",
"L  c #8054AC",
"P  c #8055AC",
"I  c #8257AD",
"U  c #8358AE",
"Y  c #8359AE",
"T  c #855BAF",
"R  c #865CB0",
"E  c #8961B2",
"W  c #8A62B2",
"Q  c #8C64B4",
"!  c #8C65B4",
"~  c #8E67B5",
"^  c #906AB6",
"/  c #906AB7",
"(  c #916BB7",
")  c #9672BB",
"_  c #9F7DC0",
"`  c #A07FC1",
"'  c #A281C2",
"]  c #A485C3",
"[  c #A687C5",
"{  c #A788C5",
"}  c #A789C5",
"|  c #AE92CA",
" . c #B095CB",
".. c #B095CC",
"X. c #B195CC",
"o. c #B196CC",
"O. c #B59BCE",
"+. c #B59CCF",
"@. c #B79FD0",
"#. c #B89FD0",
"$. c #BCA5D3",
"%. c #C1ACD7",
"&. c #CAB7DC",
"*. c #CDBBDE",
"=. c #CDBCDE",
"-. c #CFBEDF",
";. c #D5C7E4",
":. c #D8CAE5",
">. c #D8CBE5",
",. c #DACDE7",
"<. c #DCCFE8",
"1. c #E0D5EB",
"2. c #E2D8EC",
"3. c #E7DFEF",
"4. c #E8E1F0",
"5. c #E9E1F0",
"6. c #E9E2F1",
"7. c #EDE7F3",
"8. c #EEE8F4",
"9. c #EFEAF5",
"0. c #F1ECF6",
"q. c #F2EDF6",
"w. c #F4F0F8",
"e. c #F5F1F8",
"r. c #F9F6FB",
"t. c #F9F7FB",
"y. c #FAF9FC",
"u. c #FBFAFC",
"i. c #FCFBFD",
"p. c #FCFCFD",
"a. c #FDFCFD",
"s. c #FEFDFE",
"d. c #FEFEFF",
"f. c #FEFFFF",
"g. c gray100",
"h. c None",
/* pixels */
"h.h.h.h.e e e 5 e 5 e 5 e 5 5 e 5 e 5 e e e 5 e 5 e e e h.h.h.h.",
"h.h.e e a a a e e e e e e e e e e e e e e 9 e e e e e i a e h.h.",
"h.e h e 3 e 5 e 9 e e e e 5 e e 3 e 5 e e 3 9 3 5 e 5 e e j e h.",
"h.e e e e 5 e 5 3 e 3 e 3 3 3 5 e 5 e 5 9 3 e e e 5 e 5 e e f h.",
"h.j e 9 3 9 e 3 e 3 e 9 x x l e 3 9 3 e 3 9 3 9 e 9 9 3 5 e e 3 ",
"e 9 3 3 e 3 e 9 e e $ Y 4.4.4.I = e e 5 3 e e 9 3 3 e e e 3 e 9 ",
"3 9 9 e 3 e 3 9 e 5 o Z g.g.g./ . = 3 5 9 e 3 3 9 e 3 9 e 9 e 5 ",
"e i 3 e 9 9 3 e 5 l K Q e.g.g._ F J n : = 5 9 e 9 3 e 9 3 3 e 9 ",
"e a e e 9 e 3 3 3 Z u.g.g.g.g.%.w.g.9.*.R $ 5 e e 3 e 3 9 9 e 3 ",
"2 e 3 e 3 e 9 e : A g.g.g.g.g.4.g.g.g.g.g.[ : e e 9 9 3 e 3 e 9 ",
"e i e 3 3 9 e 9 3 n :.,.7.g.g.q.,.8.g.g.g.g.! $ 3 9 e e 3 e 3 9 ",
"e 9 3 e e 9 3 3 9 e 3 O ` g.g.&.$ c ' r.g.g.>.: e 3 3 9 9 9 3 e ",
"3 e e 3 e 3 9 e e e 3 $ W g.g.;.: 3 .  .g.g.r.N 3 3 3 e e e 3 9 ",
"e a 3 e e 9 3 e 9 3 e : Z g.g.1.e e : G p.g.g.Y = e 9 9 3 9 3 e ",
"3 a e 3 3 3 9 9 e e 3 3 s L I J e 5 : N u.g.g.T = 3 e 3 9 3 9 e ",
"3 a 3 e 9 e e 3 3 9 9 e 3 $ $ : e e O ( g.g.p.F : 5 9 3 e e 9 3 ",
"e i e 9 e 9 9 3 e e $ O + + + + + . M 2.g.g.3.l e e 9 e 3 3 9 e ",
"e 9 3 3 3 3 e e : c ] [ [ [ [ [ } $.9.g.g.g.[ $ e 3 3 e 9 e 9 3 ",
"3 e 9 e 9 e 3 9 : D g.g.g.g.g.g.g.g.g.g.g.-.9 3 3 e 3 9 e 9 e 3 ",
"e a 3 e 9 3 e 9 : Z u.g.g.g.g.g.g.g.g.w.+.l 5 3 e 3 e 3 3 3 e 9 ",
"3 a e 3 e 3 e 3 : Z u.g.g.=.O.+.+.o.) M = 3 9 e 3 e e 9 9 9 e 3 ",
"3 a 3 e 3 e 3 e : Z t.g.g.E   + $ $ + : e 5 3 e 9 9 3 3 e 3 e 9 ",
"e e e 3 e 3 e e $ Z u.g.g.~ $ e e e 3 e 3 e 3 9 e 3 9 e 3 e 3 9 ",
"3 s 3 e 3 e 5 e : Z u.g.g.~ $ 5 e 3 e 3 e 3 e 3 e 9 3 e 9 9 3 e ",
"3 a 3 e 3 3 9 e : Z u.g.g.Q = 3 e 9 9 3 9 3 3 e 3 9 e 3 9 9 e 3 ",
"3 a e 3 9 e 9 3 : D g.g.g.^ + e 3 3 e e e e 9 9 3 e 9 3 e 3 e 9 ",
"3 f e e e 9 e 3 3 v  .o.o.Z : 5 9 e 3 9 3 9 e 3 9 9 e e 9 3 3 9 ",
"h.f e e 3 3 e 9 5 3 + + $ : e e 9 3 e 9 3 e 9 3 e 3 3 9 e e e e ",
"h.9 5 e 9 9 e 3 e 3 9 9 9 3 3 e e e 3 9 3 9 e e e 5 e 5 3 e i h.",
"h.e j e e 3 e 9 9 3 e 3 e e 9 9 3 9 3 e e 9 3 9 5 e 5 e 9 j e h.",
"h.h.e e e e 3 9 9 e 3 e 3 9 e 3 9 3 9 e e 3 9 3 9 e e e a e h.h.",
"h.h.h.h.e s 3 e 3 e 9 9 3 e 9 3 e e 9 3 9 3 e e 9 3 e a h.h.h.h."
};
