/* XPM */
static char *_7fde1efeefe44fbea9e2817a50c47dc[] = {
/* columns rows colors chars-per-pixel */
"16 16 87 1 ",
"  c #50148C",
". c #54198F",
"X c #551A90",
"o c #561C90",
"O c #571C91",
"+ c #571E91",
"@ c #581F92",
"# c #591F92",
"$ c #591E93",
"% c #592092",
"& c #5A2193",
"* c #5A2293",
"= c #5B2194",
"- c #5B2294",
"; c #5C2394",
": c #5C2494",
"> c #5C2594",
", c #5D2594",
"< c #5C2495",
"1 c #5D2495",
"2 c #5C2595",
"3 c #5D2595",
"4 c #5D2496",
"5 c #5D2596",
"6 c #5E2596",
"7 c #5E2597",
"8 c #5F2696",
"9 c #5E2796",
"0 c #5E2697",
"q c #5F2697",
"w c #5F2897",
"e c #5E2698",
"r c #5F2698",
"t c #5F2699",
"y c #602A97",
"u c #60269A",
"i c #61269B",
"p c #61279B",
"a c #61279C",
"s c #612B98",
"d c #622C98",
"f c #65309A",
"g c #65319B",
"h c #66319B",
"j c #66329B",
"k c #6D3A9F",
"l c #7241A2",
"z c #7342A3",
"x c #7849A7",
"c c #794BA7",
"v c #7A4CA8",
"b c #7E52AB",
"n c #8054AC",
"m c #8358AE",
"M c #845AAF",
"N c #855AAF",
"B c #865DB0",
"V c #875EB1",
"C c #8A62B3",
"Z c #8C64B4",
"A c #8C65B4",
"S c #A282C3",
"D c #A789C6",
"F c #A889C6",
"G c #AD90C9",
"H c #B59CCF",
"J c #B69CCF",
"K c #CAB7DC",
"L c #CDBCDF",
"P c #D6C8E4",
"I c #D9CCE6",
"U c #DACEE7",
"Y c #E5DCEE",
"T c #E6DDEF",
"R c #EAE3F1",
"E c #EBE4F2",
"W c #EDE7F3",
"Q c #EFEAF6",
"! c #F0EBF5",
"~ c #F2EDF6",
"^ c #F2EDF7",
"/ c #F4F0F8",
"( c #F5F2F9",
") c #F8F5FA",
"_ c #FBFAFC",
"` c gray100",
"' c None",
/* pixels */
"''77:>>>>>>>7r''",
"'7u777%-rr777rr'",
",p7,:sAc-7>>7,r7",
":7,7,l_Lw>@7,,77",
":7::gT`RWUC+,,7:",
"7r7,sST~H!)x%77,",
":77:, HR+B`D+7:,",
":w,77+gl.c`G+,:7",
",77,7MBMAP`N#,,7",
":7::gQ```(D%,7,,",
":w,:g~Ibnk%77,7:",
">r7:j/L.%%7,::7,",
">77:fWK+7,,:,,7w",
"7p,,wlk:::777:7>",
"'7r7,:::>w,,7w7'",
"''77:7:7,:7777''"
};
